# xmcd
# Track frame offsets:
# 150
# 17341
# 39327
# 61947
# 79870
# 99911
# 120829
# 138593
# 156756
# 173827
# 193809
# 214677
# 234111
#
# Disc length: 3360 seconds
# Revision: 0
# Processed by: cddbd v1.5PL3 Copyright (c) Steve Scherf et al.
# Submitted via: VisiTrax 2.9.7.197 - For more info visit www.synapsa.com
#
DISCID=970d1e0d
DTITLE=Lee Shot Williams - Get Down Tonight
DYEAR=2003
DGENRE=Blues
TTITLE0=Get Down Tonight
TTITLE1=You Got That Voodoo
TTITLE2=My Kinda Lady
TTITLE3=Who's Your Daddy?
TTITLE4=Somebody's Changin' My Sweet Baby's Mind
TTITLE5=Caught In The Middle
TTITLE6=Juke Joint Slide
TTITLE7=Give Me All Your Love
TTITLE8=Back Door Lover
TTITLE9=Cheatin' Is A Risk
TTITLE10=Bonus Track
TTITLE11=Bonus Track
TTITLE12=Bonus Track
EXTD=
EXTT0=
EXTT1=
EXTT2=
EXTT3=
EXTT4=
EXTT5=
EXTT6=
EXTT7=
EXTT8=
EXTT9=
EXTT10=
EXTT11=
EXTT12=
PLAYORDER=
